<svg xmlns="http://www.w3.org/2000/svg" viewBox="0 0 100 100">
  <defs>
    <linearGradient id="brainGrad" x1="0%" y1="0%" x2="100%" y2="100%">
      <stop offset="0%" style="stop-color:#f8b4d9"/>
      <stop offset="100%" style="stop-color:#e07a5f"/>
    </linearGradient>
  </defs>
  <!-- Brain shape -->
  <path d="M50 10
    C30 10 20 25 20 35
    C15 35 10 42 10 50
    C10 58 15 65 20 65
    C20 75 30 90 50 90
    C70 90 80 75 80 65
    C85 65 90 58 90 50
    C90 42 85 35 80 35
    C80 25 70 10 50 10Z"
    fill="url(#brainGrad)"
    stroke="#3d3833"
    stroke-width="2"/>
  <!-- Brain folds -->
  <path d="M35 30 Q50 40 35 55 M65 30 Q50 40 65 55 M50 45 L50 75 M30 50 Q50 60 70 50"
    fill="none"
    stroke="#3d3833"
    stroke-width="2"
    stroke-linecap="round"/>
</svg>
